<svg viewBox="0 0 300 140" xmlns="http://www.w3.org/2000/svg">
<defs><radialGradient id="g1" cx="50%" cy="40%" r="70%"><stop offset="0%" stop-color="#FFB547" stop-opacity="0.16"/><stop offset="100%" stop-color="#FFB547" stop-opacity="0"/></radialGradient>
<pattern id="hx" width="34" height="60" patternUnits="userSpaceOnUse"><path d="M17 0 L34 10 L34 30 L17 40 L0 30 L0 10 Z" fill="none" stroke="rgba(255,255,255,0.035)" stroke-width="1"/></pattern></defs>
<rect width="300" height="140" fill="#0F1728"/>
<rect width="300" height="140" fill="url(#hx)"/>
<rect width="300" height="140" fill="url(#g1)"/>
<polygon points="150.0,26.4 143.9,49.6 123.1,37.5 135.2,58.3 112.0,64.4 135.2,70.5 123.1,91.3 143.9,79.2 150.0,102.4 156.1,79.2 176.9,91.3 164.8,70.5 188.0,64.4 164.8,58.3 176.9,37.5 156.1,49.6" fill="none" stroke="#FFB547" stroke-width="2.2"/>
<circle cx="150.0" cy="64.4" r="11" fill="#FFB547" fill-opacity="0.25" stroke="#FFB547" stroke-width="1.6"/>
<path d="M 128.0,104.4 L 140.0,84.4 L 160.0,84.4 L 172.0,104.4 L 150.0,94.4 Z" fill="#FFB547" fill-opacity="0.6"/>
<rect x="0.5" y="0.5" width="299" height="139" fill="none" stroke="#FFB547" stroke-opacity="0.35" stroke-width="1"/>
</svg>