<svg viewBox="0 0 300 140" xmlns="http://www.w3.org/2000/svg">
<defs><radialGradient id="g1" cx="50%" cy="40%" r="70%"><stop offset="0%" stop-color="#00FF88" stop-opacity="0.16"/><stop offset="100%" stop-color="#00FF88" stop-opacity="0"/></radialGradient>
<pattern id="hx" width="34" height="60" patternUnits="userSpaceOnUse"><path d="M17 0 L34 10 L34 30 L17 40 L0 30 L0 10 Z" fill="none" stroke="rgba(255,255,255,0.035)" stroke-width="1"/></pattern></defs>
<rect width="300" height="140" fill="#0F1728"/>
<rect width="300" height="140" fill="url(#hx)"/>
<rect width="300" height="140" fill="url(#g1)"/>
<rect x="70.0" y="32.0" width="52" height="76" rx="4" fill="none" stroke="#00FF88" stroke-width="2"/>
<rect x="78.0" y="48.0" width="32" height="4" rx="2" fill="#00FF88" fill-opacity="0.85"/>
<rect x="78.0" y="62.0" width="24" height="4" rx="2" fill="#00FF88" fill-opacity="0.73"/>
<rect x="78.0" y="76.0" width="32" height="4" rx="2" fill="#00FF88" fill-opacity="0.61"/>
<rect x="78.0" y="90.0" width="24" height="4" rx="2" fill="#00FF88" fill-opacity="0.49"/>
<line x1="130.0" y1="70.0" x2="170.0" y2="70.0" stroke="#4A9EFF" stroke-width="1.6" stroke-opacity="0.7"/>
<path d="M 162.0,65.0 L 170.0,70.0 L 162.0,75.0 Z" fill="#4A9EFF"/>
<rect x="191.0" y="30.0" width="64" height="20" rx="5" fill="none" stroke="#4A9EFF" stroke-width="1.6"/>
<rect x="199.0" y="37.0" width="30" height="3" rx="1.5" fill="#4A9EFF"/>
<rect x="191.0" y="60.0" width="64" height="20" rx="5" fill="none" stroke="#9B7BFF" stroke-width="1.6"/>
<rect x="199.0" y="67.0" width="30" height="3" rx="1.5" fill="#9B7BFF"/>
<rect x="191.0" y="90.0" width="64" height="20" rx="5" fill="none" stroke="#FFB547" stroke-width="1.6"/>
<rect x="199.0" y="97.0" width="30" height="3" rx="1.5" fill="#FFB547"/>
<rect x="0.5" y="0.5" width="299" height="139" fill="none" stroke="#00FF88" stroke-opacity="0.35" stroke-width="1"/>
</svg>